<mxfile host="app.diagrams.net" modified="2020-10-19T16:59:14.009Z" agent="5.0 (Windows NT 10.0; Win64; x64) AppleWebKit/537.36 (KHTML, like Gecko) Chrome/86.0.4240.75 Safari/537.36" etag="7yzhJIXmNfGhPaIzP5IW" version="13.8.0" type="github">
  <diagram id="GwU3gwyOJ-P_wgo4JuNJ" name="Page-1">
    <mxGraphModel dx="2209" dy="1283" grid="1" gridSize="10" guides="1" tooltips="1" connect="1" arrows="1" fold="1" page="1" pageScale="1" pageWidth="827" pageHeight="1169" math="0" shadow="0">
      <root>
        <mxCell id="0" />
        <mxCell id="1" parent="0" />
        <mxCell id="_XJdXQDjK6ybq_Vrd5E6-2" value="חלון כניסה" style="text;html=1;strokeColor=none;fillColor=none;align=center;verticalAlign=middle;whiteSpace=wrap;rounded=0;fontSize=29;fontStyle=5" parent="1" vertex="1">
          <mxGeometry x="280" y="30" width="320" height="20" as="geometry" />
        </mxCell>
        <mxCell id="_XJdXQDjK6ybq_Vrd5E6-8" value="" style="group;" parent="1" vertex="1" connectable="0">
          <mxGeometry x="340" y="110" width="200" height="390" as="geometry" />
        </mxCell>
        <mxCell id="_XJdXQDjK6ybq_Vrd5E6-51" value="" style="rounded=0;whiteSpace=wrap;html=1;strokeColor=#000000;fontSize=29;fontColor=#CCCCCC;fillColor=#B3B3B3;" parent="_XJdXQDjK6ybq_Vrd5E6-8" vertex="1">
          <mxGeometry x="3.9" y="50" width="190" height="280.88" as="geometry" />
        </mxCell>
        <mxCell id="_XJdXQDjK6ybq_Vrd5E6-1" value="" style="verticalLabelPosition=bottom;verticalAlign=top;html=1;shadow=0;dashed=0;strokeWidth=1;shape=mxgraph.android.phone2;strokeColor=#c0c0c0;fillColor=#1A1A1A;" parent="_XJdXQDjK6ybq_Vrd5E6-8" vertex="1">
          <mxGeometry width="200" height="390" as="geometry" />
        </mxCell>
        <mxCell id="_XJdXQDjK6ybq_Vrd5E6-3" value="&lt;font color=&quot;#000000&quot;&gt;היכנס&lt;/font&gt;" style="rounded=1;html=1;shadow=0;dashed=0;whiteSpace=wrap;fontSize=10;fillColor=#999999;align=center;strokeWidth=2;fontColor=#CCCCCC;strokeColor=none;" parent="_XJdXQDjK6ybq_Vrd5E6-8" vertex="1">
          <mxGeometry x="47.25" y="240" width="105.5" height="16.88" as="geometry" />
        </mxCell>
        <mxCell id="_XJdXQDjK6ybq_Vrd5E6-6" value="&lt;span style=&quot;font-size: 14px&quot;&gt;Chaim&lt;/span&gt;" style="strokeWidth=1;html=1;shadow=0;dashed=0;shape=mxgraph.android.textfield;align=center;strokeColor=#4D4D4D;pointerEvents=1;fillColor=#1A1A1A;fontSize=29;labelPosition=center;verticalLabelPosition=middle;verticalAlign=middle;horizontal=1;spacing=2;spacingLeft=-1;spacingBottom=6;fontColor=#FFFFFF;" parent="_XJdXQDjK6ybq_Vrd5E6-8" vertex="1">
          <mxGeometry x="21.5" y="120" width="157" height="20" as="geometry" />
        </mxCell>
        <mxCell id="_XJdXQDjK6ybq_Vrd5E6-7" value="&lt;font style=&quot;font-size: 14px&quot;&gt;&lt;br&gt;&lt;/font&gt;" style="strokeWidth=1;html=1;shadow=0;dashed=0;shape=mxgraph.android.textfield;align=center;strokeColor=#4D4D4D;pointerEvents=1;fillColor=#1A1A1A;fontSize=29;labelPosition=center;verticalLabelPosition=middle;verticalAlign=middle;horizontal=1;spacing=2;spacingLeft=-1;spacingBottom=6;fontColor=#FFFFFF;" parent="_XJdXQDjK6ybq_Vrd5E6-8" vertex="1">
          <mxGeometry x="21.5" y="170" width="157" height="20" as="geometry" />
        </mxCell>
        <mxCell id="_XJdXQDjK6ybq_Vrd5E6-22" value="דף כניסה-גיבוש גולני" style="whiteSpace=wrap;html=1;shadow=0;dashed=0;fontSize=10;align=center;fillColor=#1A1A1A;strokeColor=#1A1A1A;fontColor=#FFFFFF;" parent="_XJdXQDjK6ybq_Vrd5E6-8" vertex="1">
          <mxGeometry x="3.9" y="30" width="192.2" height="26.88" as="geometry" />
        </mxCell>
        <mxCell id="_XJdXQDjK6ybq_Vrd5E6-24" value="" style="verticalLabelPosition=bottom;verticalAlign=top;html=1;shadow=0;dashed=0;strokeWidth=2;shape=mxgraph.android.navigation_bar_1;fillColor=#1A1A1A;fontSize=29;strokeColor=#B3B3B3;" parent="_XJdXQDjK6ybq_Vrd5E6-8" vertex="1">
          <mxGeometry x="3.9" y="330" width="192.5" height="30" as="geometry" />
        </mxCell>
        <mxCell id="0CA6CwU94SbijW8DZjsA-110" value="********" style="strokeWidth=1;html=1;shadow=0;dashed=0;shape=mxgraph.ios.iTextInput;align=left;buttonText=;fontSize=8;labelBackgroundColor=none;sketch=0;fontColor=#333333;fillColor=none;strokeColor=none;" vertex="1" parent="_XJdXQDjK6ybq_Vrd5E6-8">
          <mxGeometry x="80" y="172.5" width="50" height="15" as="geometry" />
        </mxCell>
        <mxCell id="_XJdXQDjK6ybq_Vrd5E6-14" value="חלון מרכזי" style="text;html=1;strokeColor=none;fillColor=none;align=center;verticalAlign=middle;whiteSpace=wrap;rounded=0;fontSize=29;fontStyle=5" parent="1" vertex="1">
          <mxGeometry x="290" y="610" width="320" height="20" as="geometry" />
        </mxCell>
        <mxCell id="_XJdXQDjK6ybq_Vrd5E6-27" value="" style="endArrow=classic;html=1;fontSize=29;fontColor=#CCCCCC;" parent="1" edge="1">
          <mxGeometry width="50" height="50" relative="1" as="geometry">
            <mxPoint x="439.41" y="510" as="sourcePoint" />
            <mxPoint x="439.41" y="570" as="targetPoint" />
          </mxGeometry>
        </mxCell>
        <mxCell id="_XJdXQDjK6ybq_Vrd5E6-47" value="דו&quot;ח שטח" style="text;html=1;strokeColor=none;fillColor=none;align=center;verticalAlign=middle;whiteSpace=wrap;rounded=0;fontSize=29;fontStyle=5" parent="1" vertex="1">
          <mxGeometry x="520" y="1734" width="320" height="20" as="geometry" />
        </mxCell>
        <mxCell id="_XJdXQDjK6ybq_Vrd5E6-48" value="דו&quot;ח ראיון" style="text;html=1;strokeColor=none;fillColor=none;align=center;verticalAlign=middle;whiteSpace=wrap;rounded=0;fontSize=29;fontStyle=5" parent="1" vertex="1">
          <mxGeometry x="10" y="1733" width="320" height="20" as="geometry" />
        </mxCell>
        <mxCell id="_XJdXQDjK6ybq_Vrd5E6-50" value="" style="endArrow=classic;html=1;fontSize=29;fontColor=#CCCCCC;" parent="1" edge="1">
          <mxGeometry width="50" height="50" relative="1" as="geometry">
            <mxPoint x="320" y="1610" as="sourcePoint" />
            <mxPoint x="280" y="1680" as="targetPoint" />
          </mxGeometry>
        </mxCell>
        <mxCell id="_XJdXQDjK6ybq_Vrd5E6-9" value="" style="group" parent="1" vertex="1" connectable="0">
          <mxGeometry x="343.75" y="710" width="200" height="390" as="geometry" />
        </mxCell>
        <mxCell id="_XJdXQDjK6ybq_Vrd5E6-52" value="" style="rounded=0;whiteSpace=wrap;html=1;strokeColor=#000000;fontSize=29;fontColor=#CCCCCC;fillColor=#B3B3B3;" parent="_XJdXQDjK6ybq_Vrd5E6-9" vertex="1">
          <mxGeometry x="5" y="54.559999999999995" width="190" height="280.88" as="geometry" />
        </mxCell>
        <mxCell id="_XJdXQDjK6ybq_Vrd5E6-29" value="" style="group" parent="_XJdXQDjK6ybq_Vrd5E6-9" vertex="1" connectable="0">
          <mxGeometry width="200" height="390" as="geometry" />
        </mxCell>
        <mxCell id="_XJdXQDjK6ybq_Vrd5E6-31" value="" style="group" parent="_XJdXQDjK6ybq_Vrd5E6-29" vertex="1" connectable="0">
          <mxGeometry width="200" height="390" as="geometry" />
        </mxCell>
        <mxCell id="_XJdXQDjK6ybq_Vrd5E6-10" value="" style="verticalLabelPosition=bottom;verticalAlign=top;html=1;shadow=0;dashed=0;strokeWidth=1;shape=mxgraph.android.phone2;strokeColor=#c0c0c0;fillColor=#1A1A1A;" parent="_XJdXQDjK6ybq_Vrd5E6-31" vertex="1">
          <mxGeometry width="200" height="390" as="geometry" />
        </mxCell>
        <mxCell id="_XJdXQDjK6ybq_Vrd5E6-28" value="ניהול דוחו&quot;ת-גיבוש גולני" style="whiteSpace=wrap;html=1;shadow=0;dashed=0;fontSize=10;align=center;fillColor=#1A1A1A;strokeColor=#1A1A1A;fontColor=#FFFFFF;" parent="_XJdXQDjK6ybq_Vrd5E6-31" vertex="1">
          <mxGeometry x="4.7999999999999545" y="30" width="192.2" height="26.88" as="geometry" />
        </mxCell>
        <mxCell id="_XJdXQDjK6ybq_Vrd5E6-23" value="" style="verticalLabelPosition=bottom;verticalAlign=top;html=1;shadow=0;dashed=0;strokeWidth=2;shape=mxgraph.android.navigation_bar_1;fillColor=#1A1A1A;fontSize=29;strokeColor=#B3B3B3;" parent="_XJdXQDjK6ybq_Vrd5E6-31" vertex="1">
          <mxGeometry x="3.75" y="330" width="192.5" height="30" as="geometry" />
        </mxCell>
        <mxCell id="_XJdXQDjK6ybq_Vrd5E6-21" value="&lt;font color=&quot;#000000&quot;&gt;דו&quot;ח ראיון&lt;br&gt;&lt;/font&gt;" style="rounded=1;html=1;shadow=0;dashed=0;whiteSpace=wrap;fontSize=10;fillColor=#647687;align=center;strokeWidth=2;fontColor=#ffffff;strokeColor=#314354;" parent="_XJdXQDjK6ybq_Vrd5E6-9" vertex="1">
          <mxGeometry x="43.620000000000005" y="210" width="112.75" height="40" as="geometry" />
        </mxCell>
        <mxCell id="_XJdXQDjK6ybq_Vrd5E6-11" value="&lt;font color=&quot;#000000&quot;&gt;דו&quot;ח שטח&lt;/font&gt;" style="rounded=1;html=1;shadow=0;dashed=0;whiteSpace=wrap;fontSize=10;fillColor=#a0522d;align=center;strokeWidth=2;fontColor=#ffffff;strokeColor=#6D1F00;" parent="_XJdXQDjK6ybq_Vrd5E6-9" vertex="1">
          <mxGeometry x="43.62" y="140" width="112.75" height="40" as="geometry" />
        </mxCell>
        <mxCell id="0CA6CwU94SbijW8DZjsA-14" value="" style="group" vertex="1" connectable="0" parent="1">
          <mxGeometry x="590" y="1800" width="200" height="390" as="geometry" />
        </mxCell>
        <mxCell id="_XJdXQDjK6ybq_Vrd5E6-32" value="" style="group;" parent="0CA6CwU94SbijW8DZjsA-14" vertex="1" connectable="0">
          <mxGeometry width="200" height="390" as="geometry" />
        </mxCell>
        <mxCell id="_XJdXQDjK6ybq_Vrd5E6-33" value="" style="verticalLabelPosition=bottom;verticalAlign=top;html=1;shadow=0;dashed=0;strokeWidth=1;shape=mxgraph.android.phone2;strokeColor=#c0c0c0;fillColor=#1A1A1A;" parent="_XJdXQDjK6ybq_Vrd5E6-32" vertex="1">
          <mxGeometry width="200" height="390" as="geometry" />
        </mxCell>
        <mxCell id="_XJdXQDjK6ybq_Vrd5E6-37" value="דו&quot;ח שטח-גיבוש גולני" style="whiteSpace=wrap;html=1;shadow=0;dashed=0;fontSize=10;align=center;fillColor=#1A1A1A;strokeColor=#1A1A1A;fontColor=#FFFFFF;" parent="_XJdXQDjK6ybq_Vrd5E6-32" vertex="1">
          <mxGeometry x="3.9" y="30" width="192.2" height="26.88" as="geometry" />
        </mxCell>
        <mxCell id="_XJdXQDjK6ybq_Vrd5E6-53" value="" style="rounded=0;whiteSpace=wrap;html=1;strokeColor=#000000;fontSize=29;fontColor=#CCCCCC;labelBackgroundColor=none;fillColor=#CCCCCC;" parent="_XJdXQDjK6ybq_Vrd5E6-32" vertex="1">
          <mxGeometry x="5" y="56.88" width="190" height="280.88" as="geometry" />
        </mxCell>
        <mxCell id="_XJdXQDjK6ybq_Vrd5E6-34" value="&lt;font&gt;שמור דו&quot;ח&lt;br&gt;&lt;/font&gt;" style="rounded=1;html=1;shadow=0;dashed=0;whiteSpace=wrap;fontSize=10;align=center;strokeWidth=2;strokeColor=none;fillColor=#000000;fontColor=#FFFFFF;" parent="_XJdXQDjK6ybq_Vrd5E6-32" vertex="1">
          <mxGeometry x="35.38" y="300" width="105.5" height="16.88" as="geometry" />
        </mxCell>
        <mxCell id="_XJdXQDjK6ybq_Vrd5E6-38" value="" style="verticalLabelPosition=bottom;verticalAlign=top;html=1;shadow=0;dashed=0;strokeWidth=2;shape=mxgraph.android.navigation_bar_1;fillColor=#1A1A1A;fontSize=29;strokeColor=#B3B3B3;" parent="_XJdXQDjK6ybq_Vrd5E6-32" vertex="1">
          <mxGeometry x="3.9" y="330" width="192.5" height="30" as="geometry" />
        </mxCell>
        <mxCell id="0CA6CwU94SbijW8DZjsA-3" value="" style="verticalLabelPosition=bottom;shadow=0;dashed=0;align=center;html=1;verticalAlign=top;strokeWidth=1;shape=mxgraph.mockup.navigation.scrollBar;barPos=20;fillColor2=#FFFFFF;strokeColor2=none;direction=north;labelBackgroundColor=none;gradientColor=none;fontSize=29;fontColor=#CCCCCC;fillColor=#4D4D4D;connectable=1;allowArrows=1;recursiveResize=1;strokeColor=none;" vertex="1" parent="_XJdXQDjK6ybq_Vrd5E6-32">
          <mxGeometry x="175" y="56.88" width="30" height="273.12" as="geometry" />
        </mxCell>
        <mxCell id="0CA6CwU94SbijW8DZjsA-2" value="" style="group;rotation=0;align=center;labelPosition=center;verticalLabelPosition=middle;verticalAlign=middle;" vertex="1" connectable="0" parent="_XJdXQDjK6ybq_Vrd5E6-32">
          <mxGeometry x="10" y="60" width="156.25" height="30" as="geometry" />
        </mxCell>
        <mxCell id="_XJdXQDjK6ybq_Vrd5E6-56" value="&lt;font style=&quot;font-size: 12px&quot; color=&quot;#000000&quot;&gt;מנהיגות&lt;/font&gt;" style="text;html=1;strokeColor=none;fillColor=none;align=center;verticalAlign=middle;whiteSpace=wrap;rounded=0;fontSize=29;fontColor=#CCCCCC;rotation=0;" parent="0CA6CwU94SbijW8DZjsA-2" vertex="1">
          <mxGeometry x="58.59375" width="39.0625" height="15" as="geometry" />
        </mxCell>
        <mxCell id="0CA6CwU94SbijW8DZjsA-1" value="" style="verticalLabelPosition=bottom;shadow=0;dashed=0;align=center;html=1;verticalAlign=top;strokeWidth=1;shape=mxgraph.mockup.misc.rating;strokeColor=#999999;emptyFillColor=#ffffff;grade=8;ratingScale=10;ratingStyle=star;labelBackgroundColor=none;fontSize=29;fontColor=#CCCCCC;fillColor=#FFFF00;rotation=0;" vertex="1" parent="0CA6CwU94SbijW8DZjsA-2">
          <mxGeometry x="20" y="22.5" width="156.25" height="7.5" as="geometry" />
        </mxCell>
        <mxCell id="0CA6CwU94SbijW8DZjsA-4" value="" style="group;rotation=0;align=center;labelPosition=center;verticalLabelPosition=middle;verticalAlign=middle;" vertex="1" connectable="0" parent="_XJdXQDjK6ybq_Vrd5E6-32">
          <mxGeometry x="10" y="90" width="156.25" height="30" as="geometry" />
        </mxCell>
        <mxCell id="0CA6CwU94SbijW8DZjsA-6" value="" style="verticalLabelPosition=bottom;shadow=0;dashed=0;align=center;html=1;verticalAlign=top;strokeWidth=1;shape=mxgraph.mockup.misc.rating;strokeColor=#999999;emptyFillColor=#ffffff;grade=10;ratingScale=10;ratingStyle=star;labelBackgroundColor=none;fontSize=29;fontColor=#CCCCCC;fillColor=#FFFF00;rotation=0;" vertex="1" parent="0CA6CwU94SbijW8DZjsA-4">
          <mxGeometry x="20" y="22.5" width="156.25" height="7.5" as="geometry" />
        </mxCell>
        <mxCell id="0CA6CwU94SbijW8DZjsA-5" value="&lt;font color=&quot;#000000&quot;&gt;&lt;span style=&quot;font-size: 12px ; line-height: 60%&quot;&gt;כושר גופני&lt;/span&gt;&lt;/font&gt;" style="text;html=1;strokeColor=none;fillColor=none;align=center;verticalAlign=middle;whiteSpace=wrap;rounded=0;fontSize=29;fontColor=#CCCCCC;rotation=0;" vertex="1" parent="_XJdXQDjK6ybq_Vrd5E6-32">
          <mxGeometry x="46.25" y="90" width="77.66" height="15" as="geometry" />
        </mxCell>
        <mxCell id="0CA6CwU94SbijW8DZjsA-13" value="" style="shape=image;html=1;verticalAlign=top;verticalLabelPosition=bottom;labelBackgroundColor=#ffffff;imageAspect=0;aspect=fixed;image=https://cdn4.iconfinder.com/data/icons/basic-ui-2-line/32/dots-dotted-option-menu-bullet-128.png;strokeColor=#000000;fillColor=#4D4D4D;gradientColor=none;fontSize=29;fontColor=#CCCCCC;align=center;sketch=0;" vertex="1" parent="_XJdXQDjK6ybq_Vrd5E6-32">
          <mxGeometry x="40.35" y="170" width="95.56" height="95.56" as="geometry" />
        </mxCell>
        <mxCell id="0CA6CwU94SbijW8DZjsA-10" value="" style="group;rotation=0;align=center;labelPosition=center;verticalLabelPosition=middle;verticalAlign=middle;" vertex="1" connectable="0" parent="0CA6CwU94SbijW8DZjsA-14">
          <mxGeometry x="11" y="123" width="156.25" height="30" as="geometry" />
        </mxCell>
        <mxCell id="0CA6CwU94SbijW8DZjsA-11" value="&lt;font color=&quot;#000000&quot;&gt;&lt;span style=&quot;font-size: 12px&quot;&gt;סיבולת&lt;/span&gt;&lt;/font&gt;" style="text;html=1;strokeColor=none;fillColor=none;align=center;verticalAlign=middle;whiteSpace=wrap;rounded=0;fontSize=29;fontColor=#CCCCCC;rotation=0;" vertex="1" parent="0CA6CwU94SbijW8DZjsA-10">
          <mxGeometry x="58.59375" width="39.0625" height="15" as="geometry" />
        </mxCell>
        <mxCell id="0CA6CwU94SbijW8DZjsA-12" value="" style="verticalLabelPosition=bottom;shadow=0;dashed=0;align=center;html=1;verticalAlign=top;strokeWidth=1;shape=mxgraph.mockup.misc.rating;strokeColor=#999999;emptyFillColor=#ffffff;grade=6;ratingScale=10;ratingStyle=star;labelBackgroundColor=none;fontSize=29;fontColor=#CCCCCC;fillColor=#FFFF00;rotation=0;" vertex="1" parent="0CA6CwU94SbijW8DZjsA-10">
          <mxGeometry x="20" y="22.5" width="156.25" height="7.5" as="geometry" />
        </mxCell>
        <mxCell id="0CA6CwU94SbijW8DZjsA-15" value="" style="group" vertex="1" connectable="0" parent="1">
          <mxGeometry x="80" y="1800" width="200" height="390" as="geometry" />
        </mxCell>
        <mxCell id="0CA6CwU94SbijW8DZjsA-16" value="" style="group;" vertex="1" connectable="0" parent="0CA6CwU94SbijW8DZjsA-15">
          <mxGeometry width="200" height="390" as="geometry" />
        </mxCell>
        <mxCell id="0CA6CwU94SbijW8DZjsA-17" value="" style="verticalLabelPosition=bottom;verticalAlign=top;html=1;shadow=0;dashed=0;strokeWidth=1;shape=mxgraph.android.phone2;strokeColor=#c0c0c0;fillColor=#1A1A1A;" vertex="1" parent="0CA6CwU94SbijW8DZjsA-16">
          <mxGeometry width="200" height="390" as="geometry" />
        </mxCell>
        <mxCell id="0CA6CwU94SbijW8DZjsA-18" value="דו&quot;ח ראיון-גיבוש גולני" style="whiteSpace=wrap;html=1;shadow=0;dashed=0;fontSize=10;align=center;fillColor=#1A1A1A;strokeColor=#1A1A1A;fontColor=#FFFFFF;" vertex="1" parent="0CA6CwU94SbijW8DZjsA-16">
          <mxGeometry x="3.9" y="30" width="192.2" height="26.88" as="geometry" />
        </mxCell>
        <mxCell id="0CA6CwU94SbijW8DZjsA-19" value="" style="rounded=0;whiteSpace=wrap;html=1;strokeColor=#000000;fontSize=29;fontColor=#CCCCCC;labelBackgroundColor=none;fillColor=#CCCCCC;" vertex="1" parent="0CA6CwU94SbijW8DZjsA-16">
          <mxGeometry x="5" y="56.88" width="190" height="280.88" as="geometry" />
        </mxCell>
        <mxCell id="0CA6CwU94SbijW8DZjsA-20" value="&lt;font&gt;שמור דו&quot;ח&lt;br&gt;&lt;/font&gt;" style="rounded=1;html=1;shadow=0;dashed=0;whiteSpace=wrap;fontSize=10;align=center;strokeWidth=2;strokeColor=none;fillColor=#000000;fontColor=#FFFFFF;" vertex="1" parent="0CA6CwU94SbijW8DZjsA-16">
          <mxGeometry x="35.38" y="300" width="105.5" height="16.88" as="geometry" />
        </mxCell>
        <mxCell id="0CA6CwU94SbijW8DZjsA-21" value="" style="verticalLabelPosition=bottom;verticalAlign=top;html=1;shadow=0;dashed=0;strokeWidth=2;shape=mxgraph.android.navigation_bar_1;fillColor=#1A1A1A;fontSize=29;strokeColor=#B3B3B3;" vertex="1" parent="0CA6CwU94SbijW8DZjsA-16">
          <mxGeometry x="3.9" y="330" width="192.5" height="30" as="geometry" />
        </mxCell>
        <mxCell id="0CA6CwU94SbijW8DZjsA-22" value="" style="verticalLabelPosition=bottom;shadow=0;dashed=0;align=center;html=1;verticalAlign=top;strokeWidth=1;shape=mxgraph.mockup.navigation.scrollBar;barPos=20;fillColor2=#FFFFFF;strokeColor2=none;direction=north;labelBackgroundColor=none;gradientColor=none;fontSize=29;fontColor=#CCCCCC;fillColor=#4D4D4D;connectable=1;allowArrows=1;recursiveResize=1;strokeColor=none;" vertex="1" parent="0CA6CwU94SbijW8DZjsA-16">
          <mxGeometry x="175" y="56.88" width="30" height="273.12" as="geometry" />
        </mxCell>
        <mxCell id="0CA6CwU94SbijW8DZjsA-23" value="" style="group;rotation=0;align=center;labelPosition=center;verticalLabelPosition=middle;verticalAlign=middle;" vertex="1" connectable="0" parent="0CA6CwU94SbijW8DZjsA-16">
          <mxGeometry x="10" y="60" width="156.25" height="30" as="geometry" />
        </mxCell>
        <mxCell id="0CA6CwU94SbijW8DZjsA-24" value="&lt;font style=&quot;font-size: 12px&quot; color=&quot;#000000&quot;&gt;חברותי&lt;/font&gt;" style="text;html=1;strokeColor=none;fillColor=none;align=center;verticalAlign=middle;whiteSpace=wrap;rounded=0;fontSize=29;fontColor=#CCCCCC;rotation=0;" vertex="1" parent="0CA6CwU94SbijW8DZjsA-23">
          <mxGeometry x="58.59375" width="39.0625" height="15" as="geometry" />
        </mxCell>
        <mxCell id="0CA6CwU94SbijW8DZjsA-25" value="" style="verticalLabelPosition=bottom;shadow=0;dashed=0;align=center;html=1;verticalAlign=top;strokeWidth=1;shape=mxgraph.mockup.misc.rating;strokeColor=#999999;emptyFillColor=#ffffff;grade=8;ratingScale=10;ratingStyle=star;labelBackgroundColor=none;fontSize=29;fontColor=#CCCCCC;fillColor=#FFFF00;rotation=0;" vertex="1" parent="0CA6CwU94SbijW8DZjsA-23">
          <mxGeometry x="20" y="22.5" width="156.25" height="7.5" as="geometry" />
        </mxCell>
        <mxCell id="0CA6CwU94SbijW8DZjsA-26" value="" style="group;rotation=0;align=center;labelPosition=center;verticalLabelPosition=middle;verticalAlign=middle;" vertex="1" connectable="0" parent="0CA6CwU94SbijW8DZjsA-16">
          <mxGeometry x="10" y="90" width="156.25" height="30" as="geometry" />
        </mxCell>
        <mxCell id="0CA6CwU94SbijW8DZjsA-27" value="" style="verticalLabelPosition=bottom;shadow=0;dashed=0;align=center;html=1;verticalAlign=top;strokeWidth=1;shape=mxgraph.mockup.misc.rating;strokeColor=#999999;emptyFillColor=#ffffff;grade=10;ratingScale=10;ratingStyle=star;labelBackgroundColor=none;fontSize=29;fontColor=#CCCCCC;fillColor=#FFFF00;rotation=0;" vertex="1" parent="0CA6CwU94SbijW8DZjsA-26">
          <mxGeometry x="20" y="22.5" width="156.25" height="7.5" as="geometry" />
        </mxCell>
        <mxCell id="0CA6CwU94SbijW8DZjsA-28" value="&lt;font color=&quot;#000000&quot;&gt;&lt;span style=&quot;font-size: 12px ; line-height: 60%&quot;&gt;יכולת הקשבה&lt;/span&gt;&lt;/font&gt;" style="text;html=1;strokeColor=none;fillColor=none;align=center;verticalAlign=middle;whiteSpace=wrap;rounded=0;fontSize=29;fontColor=#CCCCCC;rotation=0;" vertex="1" parent="0CA6CwU94SbijW8DZjsA-16">
          <mxGeometry x="46.25" y="90" width="77.66" height="15" as="geometry" />
        </mxCell>
        <mxCell id="0CA6CwU94SbijW8DZjsA-29" value="" style="shape=image;html=1;verticalAlign=top;verticalLabelPosition=bottom;labelBackgroundColor=#ffffff;imageAspect=0;aspect=fixed;image=https://cdn4.iconfinder.com/data/icons/basic-ui-2-line/32/dots-dotted-option-menu-bullet-128.png;strokeColor=#000000;fillColor=#4D4D4D;gradientColor=none;fontSize=29;fontColor=#CCCCCC;align=center;sketch=0;" vertex="1" parent="0CA6CwU94SbijW8DZjsA-16">
          <mxGeometry x="40.35" y="170" width="95.56" height="95.56" as="geometry" />
        </mxCell>
        <mxCell id="0CA6CwU94SbijW8DZjsA-30" value="" style="group;rotation=0;align=center;labelPosition=center;verticalLabelPosition=middle;verticalAlign=middle;" vertex="1" connectable="0" parent="0CA6CwU94SbijW8DZjsA-15">
          <mxGeometry x="11" y="123" width="156.25" height="30" as="geometry" />
        </mxCell>
        <mxCell id="0CA6CwU94SbijW8DZjsA-31" value="&lt;font color=&quot;#000000&quot;&gt;&lt;span style=&quot;font-size: 12px&quot;&gt;יכולת התבטאות&lt;/span&gt;&lt;/font&gt;" style="text;html=1;strokeColor=none;fillColor=none;align=center;verticalAlign=middle;whiteSpace=wrap;rounded=0;fontSize=29;fontColor=#CCCCCC;rotation=0;" vertex="1" parent="0CA6CwU94SbijW8DZjsA-30">
          <mxGeometry x="34" width="77.66" height="15" as="geometry" />
        </mxCell>
        <mxCell id="0CA6CwU94SbijW8DZjsA-32" value="" style="verticalLabelPosition=bottom;shadow=0;dashed=0;align=center;html=1;verticalAlign=top;strokeWidth=1;shape=mxgraph.mockup.misc.rating;strokeColor=#999999;emptyFillColor=#ffffff;grade=6;ratingScale=10;ratingStyle=star;labelBackgroundColor=none;fontSize=29;fontColor=#CCCCCC;fillColor=#FFFF00;rotation=0;" vertex="1" parent="0CA6CwU94SbijW8DZjsA-30">
          <mxGeometry x="20" y="22.5" width="156.25" height="7.5" as="geometry" />
        </mxCell>
        <mxCell id="0CA6CwU94SbijW8DZjsA-51" value="" style="endArrow=classic;html=1;fontSize=29;fontColor=#CCCCCC;" edge="1" parent="1">
          <mxGeometry width="50" height="50" relative="1" as="geometry">
            <mxPoint x="570" y="1610" as="sourcePoint" />
            <mxPoint x="610" y="1680" as="targetPoint" />
          </mxGeometry>
        </mxCell>
        <mxCell id="0CA6CwU94SbijW8DZjsA-87" value="" style="group" vertex="1" connectable="0" parent="1">
          <mxGeometry x="340" y="1171.32" width="200" height="390" as="geometry" />
        </mxCell>
        <mxCell id="0CA6CwU94SbijW8DZjsA-75" value="" style="group" vertex="1" connectable="0" parent="0CA6CwU94SbijW8DZjsA-87">
          <mxGeometry width="200" height="390" as="geometry" />
        </mxCell>
        <mxCell id="0CA6CwU94SbijW8DZjsA-76" value="" style="group;" vertex="1" connectable="0" parent="0CA6CwU94SbijW8DZjsA-75">
          <mxGeometry width="200" height="390" as="geometry" />
        </mxCell>
        <mxCell id="0CA6CwU94SbijW8DZjsA-77" value="" style="verticalLabelPosition=bottom;verticalAlign=top;html=1;shadow=0;dashed=0;strokeWidth=1;shape=mxgraph.android.phone2;strokeColor=#c0c0c0;fillColor=#1A1A1A;" vertex="1" parent="0CA6CwU94SbijW8DZjsA-76">
          <mxGeometry width="200" height="390" as="geometry" />
        </mxCell>
        <mxCell id="0CA6CwU94SbijW8DZjsA-78" value="נתוני חייל-גיבוש גולני" style="whiteSpace=wrap;html=1;shadow=0;dashed=0;fontSize=10;align=center;fillColor=#1A1A1A;strokeColor=#1A1A1A;fontColor=#FFFFFF;" vertex="1" parent="0CA6CwU94SbijW8DZjsA-76">
          <mxGeometry x="3.9" y="30" width="192.2" height="26.88" as="geometry" />
        </mxCell>
        <mxCell id="0CA6CwU94SbijW8DZjsA-79" value="" style="rounded=0;whiteSpace=wrap;html=1;strokeColor=#000000;fontSize=29;fontColor=#CCCCCC;labelBackgroundColor=none;fillColor=#CCCCCC;" vertex="1" parent="0CA6CwU94SbijW8DZjsA-76">
          <mxGeometry x="5" y="56.88" width="190" height="280.88" as="geometry" />
        </mxCell>
        <mxCell id="0CA6CwU94SbijW8DZjsA-80" value="" style="verticalLabelPosition=bottom;verticalAlign=top;html=1;shadow=0;dashed=0;strokeWidth=2;shape=mxgraph.android.navigation_bar_1;fillColor=#1A1A1A;fontSize=29;strokeColor=#B3B3B3;" vertex="1" parent="0CA6CwU94SbijW8DZjsA-76">
          <mxGeometry x="3.9" y="330" width="192.5" height="30" as="geometry" />
        </mxCell>
        <mxCell id="0CA6CwU94SbijW8DZjsA-81" value="" style="verticalLabelPosition=bottom;shadow=0;dashed=0;align=center;html=1;verticalAlign=top;strokeWidth=1;shape=mxgraph.mockup.navigation.scrollBar;barPos=20;fillColor2=#FFFFFF;strokeColor2=none;direction=north;labelBackgroundColor=none;gradientColor=none;fontSize=29;fontColor=#CCCCCC;fillColor=#4D4D4D;connectable=1;allowArrows=1;recursiveResize=1;strokeColor=none;" vertex="1" parent="0CA6CwU94SbijW8DZjsA-76">
          <mxGeometry x="175" y="56.88" width="30" height="273.12" as="geometry" />
        </mxCell>
        <mxCell id="0CA6CwU94SbijW8DZjsA-82" value="" style="shape=image;html=1;verticalAlign=top;verticalLabelPosition=bottom;labelBackgroundColor=#ffffff;imageAspect=0;aspect=fixed;image=https://cdn4.iconfinder.com/data/icons/basic-ui-2-line/32/dots-dotted-option-menu-bullet-128.png;strokeColor=#000000;fillColor=#4D4D4D;gradientColor=none;fontSize=29;fontColor=#CCCCCC;align=center;sketch=0;" vertex="1" parent="0CA6CwU94SbijW8DZjsA-76">
          <mxGeometry x="72.06" y="160" width="35.91" height="35.91" as="geometry" />
        </mxCell>
        <mxCell id="0CA6CwU94SbijW8DZjsA-84" value="" style="group;rotation=0;align=center;labelPosition=center;verticalLabelPosition=middle;verticalAlign=middle;" vertex="1" connectable="0" parent="0CA6CwU94SbijW8DZjsA-76">
          <mxGeometry x="10.01" y="56.88" width="160" height="30" as="geometry" />
        </mxCell>
        <mxCell id="0CA6CwU94SbijW8DZjsA-85" value="&lt;font color=&quot;#000000&quot;&gt;&lt;span style=&quot;font-size: 12px&quot;&gt;שם מלא:ישראל ישראלי&lt;/span&gt;&lt;/font&gt;" style="text;html=1;strokeColor=none;fillColor=none;align=center;verticalAlign=middle;whiteSpace=wrap;rounded=0;fontSize=29;fontColor=#CCCCCC;rotation=0;" vertex="1" parent="0CA6CwU94SbijW8DZjsA-84">
          <mxGeometry x="10" y="9" width="150" height="15" as="geometry" />
        </mxCell>
        <mxCell id="0CA6CwU94SbijW8DZjsA-93" value="" style="group;rotation=0;align=center;labelPosition=center;verticalLabelPosition=middle;verticalAlign=middle;" vertex="1" connectable="0" parent="0CA6CwU94SbijW8DZjsA-76">
          <mxGeometry x="8.129999999999997" y="80.5" width="160" height="30" as="geometry" />
        </mxCell>
        <mxCell id="0CA6CwU94SbijW8DZjsA-94" value="&lt;font color=&quot;#000000&quot;&gt;&lt;span style=&quot;font-size: 12px&quot;&gt;משקל: 70&lt;/span&gt;&lt;/font&gt;" style="text;html=1;strokeColor=none;fillColor=none;align=center;verticalAlign=middle;whiteSpace=wrap;rounded=0;fontSize=29;fontColor=#CCCCCC;rotation=0;" vertex="1" parent="0CA6CwU94SbijW8DZjsA-93">
          <mxGeometry x="10" y="9" width="150" height="15" as="geometry" />
        </mxCell>
        <mxCell id="0CA6CwU94SbijW8DZjsA-95" value="" style="group;rotation=0;align=center;labelPosition=center;verticalLabelPosition=middle;verticalAlign=middle;" vertex="1" connectable="0" parent="0CA6CwU94SbijW8DZjsA-76">
          <mxGeometry x="10.009999999999998" y="105" width="160" height="30" as="geometry" />
        </mxCell>
        <mxCell id="0CA6CwU94SbijW8DZjsA-96" value="&lt;font color=&quot;#000000&quot;&gt;&lt;span style=&quot;font-size: 12px&quot;&gt;גיל: 19&lt;/span&gt;&lt;/font&gt;" style="text;html=1;strokeColor=none;fillColor=none;align=center;verticalAlign=middle;whiteSpace=wrap;rounded=0;fontSize=29;fontColor=#CCCCCC;rotation=0;" vertex="1" parent="0CA6CwU94SbijW8DZjsA-95">
          <mxGeometry x="10" y="9" width="150" height="15" as="geometry" />
        </mxCell>
        <mxCell id="0CA6CwU94SbijW8DZjsA-108" value="&lt;font color=&quot;#000000&quot;&gt;&amp;nbsp;דו&quot;ח שטח&lt;/font&gt;" style="rounded=1;html=1;shadow=0;dashed=0;whiteSpace=wrap;fontSize=10;fillColor=#a0522d;align=center;strokeWidth=2;fontColor=#ffffff;strokeColor=#6D1F00;" vertex="1" parent="0CA6CwU94SbijW8DZjsA-76">
          <mxGeometry x="30" y="220" width="116.39" height="20" as="geometry" />
        </mxCell>
        <mxCell id="0CA6CwU94SbijW8DZjsA-109" value="&lt;font color=&quot;#000000&quot;&gt;דו&quot;ח ראיון&lt;br&gt;&lt;/font&gt;" style="rounded=1;html=1;shadow=0;dashed=0;whiteSpace=wrap;fontSize=10;fillColor=#647687;align=center;strokeWidth=2;fontColor=#ffffff;strokeColor=#314354;" vertex="1" parent="0CA6CwU94SbijW8DZjsA-76">
          <mxGeometry x="30" y="260" width="116.39" height="20" as="geometry" />
        </mxCell>
        <mxCell id="0CA6CwU94SbijW8DZjsA-90" value="" style="group" vertex="1" connectable="0" parent="1">
          <mxGeometry x="770" y="1169" width="205" height="390" as="geometry" />
        </mxCell>
        <mxCell id="0CA6CwU94SbijW8DZjsA-52" value="" style="group" vertex="1" connectable="0" parent="0CA6CwU94SbijW8DZjsA-90">
          <mxGeometry width="205" height="390" as="geometry" />
        </mxCell>
        <mxCell id="0CA6CwU94SbijW8DZjsA-53" value="" style="group;" vertex="1" connectable="0" parent="0CA6CwU94SbijW8DZjsA-52">
          <mxGeometry width="205" height="390" as="geometry" />
        </mxCell>
        <mxCell id="0CA6CwU94SbijW8DZjsA-54" value="" style="verticalLabelPosition=bottom;verticalAlign=top;html=1;shadow=0;dashed=0;strokeWidth=1;shape=mxgraph.android.phone2;strokeColor=#c0c0c0;fillColor=#1A1A1A;" vertex="1" parent="0CA6CwU94SbijW8DZjsA-53">
          <mxGeometry width="200" height="390" as="geometry" />
        </mxCell>
        <mxCell id="0CA6CwU94SbijW8DZjsA-89" value="" style="group" vertex="1" connectable="0" parent="0CA6CwU94SbijW8DZjsA-53">
          <mxGeometry x="3.9" y="30" width="201.1" height="330" as="geometry" />
        </mxCell>
        <mxCell id="0CA6CwU94SbijW8DZjsA-88" value="" style="group" vertex="1" connectable="0" parent="0CA6CwU94SbijW8DZjsA-89">
          <mxGeometry width="201.1" height="330" as="geometry" />
        </mxCell>
        <mxCell id="0CA6CwU94SbijW8DZjsA-55" value="רשימת חיילים-גיבוש גולני" style="whiteSpace=wrap;html=1;shadow=0;dashed=0;fontSize=10;align=center;fillColor=#1A1A1A;strokeColor=#1A1A1A;fontColor=#FFFFFF;" vertex="1" parent="0CA6CwU94SbijW8DZjsA-88">
          <mxGeometry width="192.2" height="26.88" as="geometry" />
        </mxCell>
        <mxCell id="0CA6CwU94SbijW8DZjsA-56" value="" style="rounded=0;whiteSpace=wrap;html=1;strokeColor=#000000;fontSize=29;fontColor=#CCCCCC;labelBackgroundColor=none;fillColor=#CCCCCC;" vertex="1" parent="0CA6CwU94SbijW8DZjsA-88">
          <mxGeometry x="1.1" y="26.880000000000003" width="190" height="280.88" as="geometry" />
        </mxCell>
        <mxCell id="0CA6CwU94SbijW8DZjsA-58" value="" style="verticalLabelPosition=bottom;verticalAlign=top;html=1;shadow=0;dashed=0;strokeWidth=2;shape=mxgraph.android.navigation_bar_1;fillColor=#1A1A1A;fontSize=29;strokeColor=#B3B3B3;" vertex="1" parent="0CA6CwU94SbijW8DZjsA-88">
          <mxGeometry y="300" width="192.5" height="30" as="geometry" />
        </mxCell>
        <mxCell id="0CA6CwU94SbijW8DZjsA-59" value="" style="verticalLabelPosition=bottom;shadow=0;dashed=0;align=center;html=1;verticalAlign=top;strokeWidth=1;shape=mxgraph.mockup.navigation.scrollBar;barPos=20;fillColor2=#FFFFFF;strokeColor2=none;direction=north;labelBackgroundColor=none;gradientColor=none;fontSize=29;fontColor=#CCCCCC;fillColor=#4D4D4D;connectable=1;allowArrows=1;recursiveResize=1;strokeColor=none;" vertex="1" parent="0CA6CwU94SbijW8DZjsA-88">
          <mxGeometry x="171.1" y="26.880000000000003" width="30" height="273.12" as="geometry" />
        </mxCell>
        <mxCell id="0CA6CwU94SbijW8DZjsA-66" value="" style="shape=image;html=1;verticalAlign=top;verticalLabelPosition=bottom;labelBackgroundColor=#ffffff;imageAspect=0;aspect=fixed;image=https://cdn4.iconfinder.com/data/icons/basic-ui-2-line/32/dots-dotted-option-menu-bullet-128.png;strokeColor=#000000;fillColor=#4D4D4D;gradientColor=none;fontSize=29;fontColor=#CCCCCC;align=center;sketch=0;" vertex="1" parent="0CA6CwU94SbijW8DZjsA-88">
          <mxGeometry x="36.45" y="140" width="95.56" height="95.56" as="geometry" />
        </mxCell>
        <mxCell id="0CA6CwU94SbijW8DZjsA-73" value="&lt;font color=&quot;#000000&quot;&gt;&lt;span style=&quot;font-size: 12px&quot;&gt;ישראל ישראלי&lt;/span&gt;&lt;/font&gt;" style="text;html=1;strokeColor=none;fillColor=none;align=center;verticalAlign=middle;whiteSpace=wrap;rounded=0;fontSize=29;fontColor=#CCCCCC;rotation=0;" vertex="1" parent="0CA6CwU94SbijW8DZjsA-88">
          <mxGeometry x="50.40000000000001" y="68" width="67.66" height="15" as="geometry" />
        </mxCell>
        <mxCell id="0CA6CwU94SbijW8DZjsA-60" value="" style="group;rotation=0;align=center;labelPosition=center;verticalLabelPosition=middle;verticalAlign=middle;" vertex="1" connectable="0" parent="0CA6CwU94SbijW8DZjsA-88">
          <mxGeometry x="6.109999999999999" y="26.880000000000003" width="162.24" height="32.319999999999936" as="geometry" />
        </mxCell>
        <mxCell id="0CA6CwU94SbijW8DZjsA-61" value="&lt;font color=&quot;#000000&quot;&gt;&lt;span style=&quot;font-size: 12px&quot;&gt;ישראל ישראלי&lt;/span&gt;&lt;/font&gt;" style="text;html=1;strokeColor=none;fillColor=none;align=center;verticalAlign=middle;whiteSpace=wrap;rounded=0;fontSize=29;fontColor=#CCCCCC;rotation=0;" vertex="1" parent="0CA6CwU94SbijW8DZjsA-60">
          <mxGeometry x="46" y="17" width="67.66" height="15" as="geometry" />
        </mxCell>
        <mxCell id="0CA6CwU94SbijW8DZjsA-74" value="&lt;font color=&quot;#000000&quot;&gt;&lt;span style=&quot;font-size: 12px&quot;&gt;ישראל ישראלי&lt;/span&gt;&lt;/font&gt;" style="text;html=1;strokeColor=none;fillColor=none;align=center;verticalAlign=middle;whiteSpace=wrap;rounded=0;fontSize=29;fontColor=#CCCCCC;rotation=0;" vertex="1" parent="0CA6CwU94SbijW8DZjsA-90">
          <mxGeometry x="56.30000000000001" y="127" width="67.66" height="15" as="geometry" />
        </mxCell>
        <mxCell id="0CA6CwU94SbijW8DZjsA-91" style="edgeStyle=orthogonalEdgeStyle;rounded=0;orthogonalLoop=1;jettySize=auto;html=1;entryX=0.532;entryY=-0.005;entryDx=0;entryDy=0;entryPerimeter=0;fontSize=29;fontColor=#CCCCCC;" edge="1" parent="1" source="_XJdXQDjK6ybq_Vrd5E6-10" target="0CA6CwU94SbijW8DZjsA-54">
          <mxGeometry relative="1" as="geometry" />
        </mxCell>
        <mxCell id="0CA6CwU94SbijW8DZjsA-92" style="edgeStyle=orthogonalEdgeStyle;rounded=0;orthogonalLoop=1;jettySize=auto;html=1;fontSize=29;fontColor=#CCCCCC;" edge="1" parent="1" source="0CA6CwU94SbijW8DZjsA-54">
          <mxGeometry relative="1" as="geometry">
            <mxPoint x="560" y="1364" as="targetPoint" />
          </mxGeometry>
        </mxCell>
        <mxCell id="0CA6CwU94SbijW8DZjsA-114" value="&lt;font style=&quot;font-size: 14px&quot;&gt;מחיקת חייל במשיכת אצבע לאחד הצדדים&lt;/font&gt;" style="shape=callout;whiteSpace=wrap;html=1;perimeter=calloutPerimeter;labelBackgroundColor=none;sketch=0;gradientColor=none;fontSize=14;fontColor=none;align=center;position2=0;fillColor=none;verticalAlign=top;" vertex="1" parent="1">
          <mxGeometry x="980" y="1140" width="130" height="80" as="geometry" />
        </mxCell>
      </root>
    </mxGraphModel>
  </diagram>
</mxfile>
